<svg xmlns="http://www.w3.org/2000/svg" viewBox="0 0 100 100" width="48" height="48">
  <defs>
    <linearGradient id="autoGrad" x1="0%" y1="0%" x2="100%" y2="100%">
      <stop offset="0%" style="stop-color:#E31937;stop-opacity:1" />
      <stop offset="50%" style="stop-color:#0066CC;stop-opacity:1" />
      <stop offset="100%" style="stop-color:#00D4FF;stop-opacity:1" />
    </linearGradient>
  </defs>
  <path d="M50 8 L62 25 L80 20 L75 38 L95 42 L78 52 L90 70 L68 62 L58 85 L50 68 L42 85 L32 62 L10 70 L22 52 L5 42 L25 38 L20 20 L38 25 Z" fill="url(#autoGrad)" stroke="#00D4FF" stroke-width="1.5"/>
  <path d="M50 30 L56 40 L50 48 L44 40 Z" fill="#00D4FF" opacity="0.8"/>
  <line x1="50" y1="48" x2="50" y2="62" stroke="#00D4FF" stroke-width="2" opacity="0.6"/>
  <line x1="44" y1="40" x2="35" y2="50" stroke="#E31937" stroke-width="1.5" opacity="0.7"/>
  <line x1="56" y1="40" x2="65" y2="50" stroke="#E31937" stroke-width="1.5" opacity="0.7"/>
</svg>
